# xmcd
#
# Track frame offsets: 
#        182
#        15257
#        30880
#        47825
#        64887
#        79805
#        90407
#        104110
#        116995
#        133107
#
# Disc length: 1994 seconds
#
# Revision: 3
# Processed by: cddbd v1.5.2PL0 Copyright (c) Steve Scherf et al.
# Submitted via: ExactAudioCopy v0.95b4
#
DISCID=7e07c80a
DTITLE=Emmylou Harris - Profile II - The Best Of Emmylou Harris (West 
DTITLE=Germany target pressing)
DYEAR=1984
DGENRE=Country
TTITLE0=Blue Kentucky Girl
TTITLE1=Wayfaring Stranger
TTITLE2=Beneath Still Waters
TTITLE3=Born To Run
TTITLE4=Someone Like You
TTITLE5=Mister Sandman (with Dolly Parton and Linda Ronstadt)
TTITLE6=Pledging My Love
TTITLE7=I'm Movin' On
TTITLE8=(Lost His Love) On Our Last Date
TTITLE9=Save The Last Dance For Me
EXTD=Warner Bros\n9 25161-2
EXTT0=Harmony vocals by Sharon Hicks and Cheryl Warren \nFrom the 1979 W
EXTT0=arner Bros album "Blue Kentucky Girl"
EXTT1=From the 1980 Warner Bros album "Roses In The Snow"
EXTT2=Harmony vocals by Fayssoux Starling \nFrom the 1979 Warner Bros 
EXTT2=album "Blue Kentucky Girl"
EXTT3=From the 1981 Warner Bros album "Cimarron" \nProduced by Brian A
EXTT3=hern
EXTT4=
EXTT5=From the 1981 Warner Bros album "Evangeline" \nProduced by Brian
EXTT5=Ahern
EXTT6=
EXTT7=
EXTT8=
EXTT9=Harmony vocals by Sharon Hicks and Cheryl Warren \nFrom the 1979 W
EXTT9=arner Bros album "Blue Kentucky Girl"
PLAYORDER=
